# xmcd
#
# Track frame offsets:
#	150
#	10130
#	26276
#	30005
#	49897
#	52851
#	74343
#	76248
#	91222
#	95829
#	99668
#	116668
#	139233
#	140032
#	143735
#	158498
#	160791
#	166042
#
# Disc length: 2510 seconds
#
# Revision: 1
# Processed by: cddbd v1.5PL3 Copyright (c) Steve Scherf et al.
# Submitted via: audiograbber 1.82.01
#
DISCID=db09cc12
DTITLE=Willie Nelson and Sheryl Crow - 2002-06-16 - Nashville, TN - Television Br
DTITLE=oadcast
DYEAR=1900
DGENRE=
TTITLE0=Willie Nelson and Sheryl Crow - Intro
TTITLE1=Willie Nelson and Sheryl Crow - Jackson
TTITLE2=Willie Nelson and Sheryl Crow - Stage Banter
TTITLE3=Willie Nelson and Sheryl Crow - Abilene
TTITLE4=Willie Nelson and Sheryl Crow - Interview
TTITLE5=Willie Nelson and Sheryl Crow - Good Morning America
TTITLE6=Willie Nelson and Sheryl Crow - Stage Banter
TTITLE7=Willie Nelson and Sheryl Crow - Let It Be Me
TTITLE8=Willie Nelson and Sheryl Crow - Interview
TTITLE9=Willie Nelson and Sheryl Crow - Interview
TTITLE10=Willie Nelson and Sheryl Crow - Its So Easy
TTITLE11=Willie Nelson and Sheryl Crow - You Remain
TTITLE12=Willie Nelson and Sheryl Crow - Interview
TTITLE13=Willie Nelson and Sheryl Crow - Interview
TTITLE14=Willie Nelson and Sheryl Crow - Crazy
TTITLE15=Willie Nelson and Sheryl Crow - Interview
TTITLE16=Willie Nelson and Sheryl Crow - Interview
TTITLE17=Willie Nelson and Sheryl Crow - Everyday is a Winding Road
EXTD=
EXTT0=
EXTT1=
EXTT2=
EXTT3=
EXTT4=
EXTT5=
EXTT6=
EXTT7=
EXTT8=
EXTT9=
EXTT10=
EXTT11=
EXTT12=
EXTT13=
EXTT14=
EXTT15=
EXTT16=
EXTT17=
PLAYORDER=
